
        <svg xmlns="http://www.w3.org/2000/svg" xmlns:xlink="http://www.w3.org/1999/xlink" version="1.1" width="3162.1621621621625" height="1568.228692945564" viewBox="0 0 3162.1621621621625 1568.228692945564">
			
			<g transform="scale(8.108108108108109) translate(10, 10)">
				<defs id="SvgjsDefs1253"><linearGradient id="SvgjsLinearGradient1258"><stop id="SvgjsStop1259" stop-color="#006838" offset="0"/><stop id="SvgjsStop1260" stop-color="#96cf24" offset="1"/></linearGradient></defs><g id="SvgjsG1254" featureKey="symbolFeature-0" transform="matrix(0.604229662959595,0,0,0.604229662959595,-40.966772992623135,-3.624890480146654)" fill="#fff"><g xmlns="http://www.w3.org/2000/svg"><defs><line id="a" x1="294" y1="7" x2="294" y2="293"/></defs><clipPath><use xmlns:xlink="http://www.w3.org/1999/xlink" xlink:href="#a" style="" overflow="visible"/></clipPath></g><g xmlns="http://www.w3.org/2000/svg"><path d="M151,293c-45.8,0.2-83.1-36.8-83.1-82.5c0-18.6,6.3-36.6,17.8-51.2l2.8-3.2c0.3-0.3,0.7-0.7,1-1l81.5-90.4   c12.8,11.5,13.9,31.2,2.4,43.9l-61.5,68.2c-8.2,9.3-12.7,21.3-12.7,33.7c0,28.5,23.5,51.8,52.2,51.3c28.2-0.5,50.7-23.9,50.7-52.1   v-21.4c0-17.2,13.9-31.1,31.2-31.1v52.3C233.2,255.2,196.6,292.8,151,293z"/><path d="M215.4,139.6v0.2l-85.1,94.4c-12.8-11.5-13.9-31.2-2.4-43.9l61.5-68.2c8.2-9.3,12.7-21.4,12.7-33.7   c0-28.5-23.5-51.8-52.2-51.3C121.5,37.5,99,61,99,89.2v21.4c0,17.2-13.9,31.1-31.2,31.1V89.4C67.9,43.9,104.5,6.2,150,6   c45.8-0.2,83.1,36.8,83.1,82.5C233.2,107.1,226.9,125.1,215.4,139.6z"/></g></g><g id="SvgjsG1255" featureKey="nameFeature-0" transform="matrix(1.1007235255131844,0,0,1.1007235255131844,115.9794958835399,58.46646946825796)" fill="#fff"><path d="M18.555 40 l-7.3438 -12.422 l-1.6992 0 l0 12.422 l-5.8594 0 l0 -28.223 l10.234 0 c6.3867 0 9.082 3.7695 9.082 8.4375 c0 3.7891 -2.1484 6.25 -5.9766 7.0703 l8.4961 12.715 l-6.9336 0 z M9.5117 16.641 l0 6.7383 l3.457 0 c3.125 0 4.3945 -1.3281 4.3945 -3.3594 c0 -2.0117 -1.2695 -3.3789 -4.3945 -3.3789 l-3.457 0 z M49.6337265625 40 l-2.0508 -5.8203 l-11.855 0 l-2.0508 5.8203 l-5.9961 0 l10.391 -28.223 l7.168 0 l10.391 28.223 l-5.9961 0 z M37.446726562500004 29.277 l8.418 0 l-4.1992 -11.973 z M73.036734375 40.39063 c-8.1445 0 -14.141 -5.625 -14.141 -14.434 c0 -8.9258 6.1328 -14.57 14.434 -14.57 c5.4492 0 9.9609 2.4023 12.422 6.6406 l-5.1367 2.7344 c-1.4844 -2.8906 -4.1406 -4.2773 -7.2852 -4.2773 c-4.8828 0 -8.5547 3.3594 -8.5547 9.3359 c0 5.7617 3.4375 9.4727 8.7695 9.4727 c3.6133 0 6.9336 -1.7969 7.7344 -5.918 l-7.7148 0 l0 -4.707 l13.262 0 l0 15.332 l-4.6094 0 l0 -3.9063 c-1.8164 2.6758 -4.8633 4.2969 -9.1797 4.2969 z M113.1399609375 11.777000000000001 l5.8398 0 l0 28.223 l-6.7773 0 l-12.5 -20.176 l0 20.176 l-5.8398 0 l0 -28.223 l6.6992 0 l12.578 20.059 l0 -20.059 z M143.61375 16.934 l-10.469 0 l0 6.4063 l9.2773 0 l0 5.0977 l-9.2773 0 l0 6.3867 l10.469 0 l0 5.1758 l-16.367 0 l0 -28.223 l16.367 0 l0 5.1563 z M147.5244178125 40 l10.996 -14.727 l-10.684 -13.496 l7.1289 0 l7.0313 9.2578 l7.0313 -9.2578 l7.1289 0 l-10.684 13.496 l10.996 14.727 l-7.4609 0 l-7.0117 -9.9805 l-7.0117 9.9805 l-7.4609 0 z M192.100046875 40.39063 c-6.1914 0 -11.035 -3.1641 -11.035 -10.273 l0 -18.34 l5.8594 0 l0 17.539 c0 4.2969 2.2852 5.8984 5.1758 5.8984 c2.9102 0 5.2148 -1.6211 5.2148 -5.8984 l0 -17.539 l5.8594 0 l0 18.34 c0 7.1094 -4.8633 10.273 -11.074 10.273 z M220.2291484375 40.39063 c-6.0547 0 -10.781 -2.9102 -11.641 -8.2031 l6.0547 -1.3867 c0.39063 3.1641 2.7148 4.8047 5.8203 4.8047 c2.3828 0 4.2773 -1.0547 4.2578 -3.4375 c-0.019531 -2.6563 -3.1445 -3.4961 -6.582 -4.5508 c-4.1406 -1.2891 -8.5742 -2.8125 -8.5742 -8.0078 c0 -5.2539 4.2969 -8.2227 9.9609 -8.2227 c4.9609 0 9.9609 2.0117 11.094 7.4219 l-5.6641 1.4063 c-0.52734 -2.8125 -2.4219 -4.043 -5.0781 -4.043 c-2.3633 0 -4.375 0.97656 -4.375 3.3008 c0 2.168 2.7734 2.8906 5.9766 3.8477 c4.2578 1.2891 9.2969 2.9297 9.2969 8.5547 c0 5.9961 -5.0195 8.5156 -10.547 8.5156 z"/></g>
			</g>
		</svg>
	